<svg xmlns="http://www.w3.org/2000/svg" viewBox="0 0 243 72"><defs><style>.cls-1{fill:#fff;}</style></defs><title>appstore</title><g id="Capa_2" data-name="Capa 2"><g id="Contenido"><rect width="243" height="72" rx="9"/><path class="cls-1" d="M53.16,35.68a10.41,10.41,0,0,1,5-8.73,10.7,10.7,0,0,0-8.39-4.54c-3.53-.37-7,2.12-8.76,2.12s-4.6-2.08-7.59-2A11.18,11.18,0,0,0,24,28.25c-4.07,7-1,17.39,2.86,23.08,1.95,2.79,4.23,5.9,7.21,5.79s4-1.86,7.53-1.86,4.51,1.86,7.55,1.79,5.1-2.8,7-5.61a22.82,22.82,0,0,0,3.19-6.51A10,10,0,0,1,53.16,35.68Z"/><path class="cls-1" d="M47.42,18.67a10.22,10.22,0,0,0,2.34-7.34A10.4,10.4,0,0,0,43,14.82a9.75,9.75,0,0,0-2.41,7.07A8.64,8.64,0,0,0,47.42,18.67Z"/><path class="cls-1" d="M95.38,56.72H91.3l-2.23-7H81.31l-2.13,7h-4L82.9,32.83h4.75Zm-7-10-2-6.24c-.22-.63-.62-2.13-1.21-4.5H85.1c-.24,1-.62,2.52-1.13,4.5l-2,6.24Z"/><path class="cls-1" d="M115.15,47.9a9.79,9.79,0,0,1-2.37,6.94,7,7,0,0,1-5.28,2.27,5.26,5.26,0,0,1-4.89-2.45h-.07v9.08H98.71V45.17c0-1.84,0-3.73-.14-5.67h3.36l.22,2.73h.07a6.81,6.81,0,0,1,10.9-.68A9.54,9.54,0,0,1,115.15,47.9Zm-3.9.14a7.08,7.08,0,0,0-1.13-4.15,3.93,3.93,0,0,0-3.33-1.7,4,4,0,0,0-2.57.94,4.39,4.39,0,0,0-1.51,2.46,5.55,5.55,0,0,0-.17,1.17v2.87a4.61,4.61,0,0,0,1.15,3.18,3.82,3.82,0,0,0,3,1.29,3.93,3.93,0,0,0,3.37-1.67A7.34,7.34,0,0,0,111.25,48Z"/><path class="cls-1" d="M135,47.9a9.79,9.79,0,0,1-2.37,6.94,7,7,0,0,1-5.28,2.27,5.26,5.26,0,0,1-4.89-2.45h-.07v9.08h-3.83V45.17c0-1.84,0-3.73-.14-5.67h3.36l.22,2.73H122a6.81,6.81,0,0,1,10.9-.68A9.54,9.54,0,0,1,135,47.9Zm-3.89.14a7.08,7.08,0,0,0-1.14-4.15,3.93,3.93,0,0,0-3.33-1.7,4,4,0,0,0-2.57.94,4.39,4.39,0,0,0-1.51,2.46,5.55,5.55,0,0,0-.17,1.17v2.87a4.61,4.61,0,0,0,1.15,3.18,3.8,3.8,0,0,0,3,1.29,3.91,3.91,0,0,0,3.37-1.67A7.34,7.34,0,0,0,131.07,48Z"/><path class="cls-1" d="M157.11,50A6.34,6.34,0,0,1,155,55a9.36,9.36,0,0,1-6.5,2.1,11.45,11.45,0,0,1-6.2-1.49l.89-3.19a10.55,10.55,0,0,0,5.53,1.52,5.2,5.2,0,0,0,3.37-1,3.18,3.18,0,0,0,1.21-2.61,3.3,3.3,0,0,0-1-2.45A9.16,9.16,0,0,0,149,46q-6.27-2.34-6.27-6.85a6.09,6.09,0,0,1,2.19-4.83,8.73,8.73,0,0,1,5.85-1.88,11.64,11.64,0,0,1,5.42,1.13l-.95,3.12a9.46,9.46,0,0,0-4.58-1.1,4.6,4.6,0,0,0-3.15,1,2.83,2.83,0,0,0-1,2.16,3,3,0,0,0,1.1,2.34A12.36,12.36,0,0,0,151.13,43a11.82,11.82,0,0,1,4.53,2.91A6.06,6.06,0,0,1,157.11,50Z"/><path class="cls-1" d="M169.77,42.37h-4.22v8.36c0,2.13.74,3.19,2.23,3.19a6.7,6.7,0,0,0,1.7-.18l.11,2.91a8.75,8.75,0,0,1-3,.43,4.59,4.59,0,0,1-3.54-1.39c-.85-.92-1.28-2.47-1.28-4.64V42.37h-2.51V39.5h2.51V36.34l3.76-1.13V39.5h4.22Z"/><path class="cls-1" d="M188.8,48a9.47,9.47,0,0,1-2.27,6.52,8.09,8.09,0,0,1-6.31,2.62,7.69,7.69,0,0,1-6-2.52,9.14,9.14,0,0,1-2.25-6.34,9.34,9.34,0,0,1,2.32-6.55,8,8,0,0,1,6.25-2.56,7.86,7.86,0,0,1,6.1,2.52A9.05,9.05,0,0,1,188.8,48Zm-4,.12a7.74,7.74,0,0,0-1-4.09,3.79,3.79,0,0,0-3.44-2.06,3.84,3.84,0,0,0-3.5,2.06,7.9,7.9,0,0,0-1,4.16,7.74,7.74,0,0,0,1,4.09,3.91,3.91,0,0,0,6.91,0A7.82,7.82,0,0,0,184.83,48.09Z"/><path class="cls-1" d="M201.24,42.86a6.66,6.66,0,0,0-1.21-.1,3.64,3.64,0,0,0-3.12,1.52,5.71,5.71,0,0,0-.95,3.4v9h-3.83l0-11.8c0-2,0-3.79-.15-5.42h3.34l.14,3.29h.1a5.87,5.87,0,0,1,1.92-2.73,4.64,4.64,0,0,1,2.76-.92,6.86,6.86,0,0,1,1,.07Z"/><path class="cls-1" d="M218.35,47.29a8.61,8.61,0,0,1-.14,1.74H206.73a5,5,0,0,0,1.67,3.9,5.68,5.68,0,0,0,3.75,1.2,12.82,12.82,0,0,0,4.65-.81l.6,2.66A14.41,14.41,0,0,1,211.62,57a8.35,8.35,0,0,1-6.29-2.36A8.71,8.71,0,0,1,203,48.36a9.89,9.89,0,0,1,2.13-6.49,7.35,7.35,0,0,1,6-2.76,6.4,6.4,0,0,1,5.63,2.76A9.26,9.26,0,0,1,218.35,47.29Zm-3.65-1a5.16,5.16,0,0,0-.74-2.94,3.34,3.34,0,0,0-3.05-1.59,3.62,3.62,0,0,0-3,1.56,5.74,5.74,0,0,0-1.13,3Z"/><path class="cls-1" d="M87.13,18.14a5.88,5.88,0,0,1-1.9,4.77,7.52,7.52,0,0,1-5,1.48,24.09,24.09,0,0,1-2.76-.14V12.71a19.37,19.37,0,0,1,3.24-.25,7,7,0,0,1,4.65,1.34A5.43,5.43,0,0,1,87.13,18.14Zm-2,.05A4.3,4.3,0,0,0,84.06,15a4.31,4.31,0,0,0-3.18-1.1,8.28,8.28,0,0,0-1.52.12v8.78a11.62,11.62,0,0,0,1.28.05A4.45,4.45,0,0,0,84,21.69,4.82,4.82,0,0,0,85.15,18.19Z"/><path class="cls-1" d="M97.65,20a4.68,4.68,0,0,1-1.12,3.21,4,4,0,0,1-3.1,1.29,3.81,3.81,0,0,1-3-1.24,4.52,4.52,0,0,1-1.1-3.12A4.61,4.61,0,0,1,90.5,16.9a4,4,0,0,1,3.07-1.25,3.9,3.9,0,0,1,3,1.23A4.53,4.53,0,0,1,97.65,20Zm-2,.06a3.76,3.76,0,0,0-.5-2,1.86,1.86,0,0,0-1.69-1,1.88,1.88,0,0,0-1.72,1,3.86,3.86,0,0,0-.51,2,3.8,3.8,0,0,0,.51,2,1.89,1.89,0,0,0,1.7,1,1.87,1.87,0,0,0,1.69-1A3.79,3.79,0,0,0,95.69,20Z"/><path class="cls-1" d="M111.75,15.82l-2.65,8.46h-1.72l-1.1-3.67c-.28-.92-.5-1.83-.68-2.73h0a21,21,0,0,1-.68,2.73l-1.17,3.67H102l-2.49-8.46h1.93l1,4c.23,1,.42,1.86.58,2.72h0c.14-.71.37-1.61.7-2.7l1.2-4h1.53l1.15,3.95c.28,1,.5,1.9.68,2.79h0q.2-1.3.57-2.79l1-3.95Z"/><path class="cls-1" d="M121.5,24.28h-1.88V19.44c0-1.5-.57-2.24-1.71-2.24a1.71,1.71,0,0,0-1.36.61,2.24,2.24,0,0,0-.52,1.45v5h-1.88v-6c0-.74,0-1.55-.07-2.42h1.66l.08,1.32h.06a2.7,2.7,0,0,1,1-1,3.23,3.23,0,0,1,1.71-.47,2.68,2.68,0,0,1,2,.76,3.71,3.71,0,0,1,1,2.81Z"/><path class="cls-1" d="M126.69,24.28h-1.88V11.94h1.88Z"/><path class="cls-1" d="M137.76,20a4.68,4.68,0,0,1-1.11,3.21,4,4,0,0,1-3.1,1.29,3.78,3.78,0,0,1-3-1.24,4.48,4.48,0,0,1-1.11-3.12,4.61,4.61,0,0,1,1.14-3.22,4,4,0,0,1,3.07-1.25,3.88,3.88,0,0,1,3,1.23A4.49,4.49,0,0,1,137.76,20Zm-1.95.06a3.76,3.76,0,0,0-.51-2,1.84,1.84,0,0,0-1.68-1,1.89,1.89,0,0,0-1.73,1,4,4,0,0,0-.5,2,3.89,3.89,0,0,0,.5,2,1.92,1.92,0,0,0,1.71,1,1.88,1.88,0,0,0,1.69-1A3.79,3.79,0,0,0,135.81,20Z"/><path class="cls-1" d="M146.87,24.28h-1.69l-.14-1H145a2.88,2.88,0,0,1-2.47,1.17,2.55,2.55,0,0,1-1.93-.77,2.4,2.4,0,0,1-.66-1.72,2.62,2.62,0,0,1,1.3-2.37,6.69,6.69,0,0,1,3.64-.8v-.16c0-1.11-.58-1.67-1.75-1.67a3.92,3.92,0,0,0-2.21.63l-.38-1.24a5.41,5.41,0,0,1,2.9-.73c2.22,0,3.32,1.17,3.32,3.5v3.11A13.06,13.06,0,0,0,146.87,24.28Zm-2-2.9V20.07c-2.07,0-3.11.53-3.11,1.71a1.28,1.28,0,0,0,.36,1,1.31,1.31,0,0,0,.92.33,1.9,1.9,0,0,0,1.15-.39,1.62,1.62,0,0,0,.65-1A1.69,1.69,0,0,0,144.91,21.38Z"/><path class="cls-1" d="M157.56,24.28h-1.67l-.09-1.35h-.05A2.82,2.82,0,0,1,153,24.48a3.16,3.16,0,0,1-2.54-1.21,4.69,4.69,0,0,1-1-3.11,4.88,4.88,0,0,1,1.1-3.33,3.34,3.34,0,0,1,2.61-1.18,2.53,2.53,0,0,1,2.38,1.15h0V11.94h1.88V22C157.49,22.83,157.51,23.59,157.56,24.28Zm-1.95-3.56V19.3a2.38,2.38,0,0,0-.06-.59,2.1,2.1,0,0,0-.68-1.14,1.82,1.82,0,0,0-1.25-.46A1.92,1.92,0,0,0,152,18a3.57,3.57,0,0,0-.6,2.14,3.35,3.35,0,0,0,.58,2,1.93,1.93,0,0,0,1.64.83,1.81,1.81,0,0,0,1.49-.7A2.3,2.3,0,0,0,155.61,20.72Z"/><path class="cls-1" d="M173.64,20a4.68,4.68,0,0,1-1.11,3.21,4,4,0,0,1-3.1,1.29,3.81,3.81,0,0,1-3-1.24,4.47,4.47,0,0,1-1.1-3.12,4.56,4.56,0,0,1,1.14-3.22,4,4,0,0,1,3.07-1.25,3.86,3.86,0,0,1,3,1.23A4.49,4.49,0,0,1,173.64,20Zm-1.95.06a3.76,3.76,0,0,0-.5-2,1.93,1.93,0,0,0-3.41,0,3.86,3.86,0,0,0-.51,2,3.8,3.8,0,0,0,.51,2,1.89,1.89,0,0,0,1.7,1,1.87,1.87,0,0,0,1.69-1A3.79,3.79,0,0,0,171.69,20Z"/><path class="cls-1" d="M183.76,24.28h-1.88V19.44c0-1.5-.57-2.24-1.71-2.24a1.66,1.66,0,0,0-1.35.61,2.2,2.2,0,0,0-.53,1.45v5h-1.88v-6c0-.74,0-1.55-.07-2.42H178l.09,1.32h.06a2.7,2.7,0,0,1,1-1,3.23,3.23,0,0,1,1.71-.47,2.68,2.68,0,0,1,2,.76,3.71,3.71,0,0,1,1,2.81Z"/><path class="cls-1" d="M196.42,17.23h-2.07v4.11c0,1.05.36,1.57,1.09,1.57a3.26,3.26,0,0,0,.84-.09l.05,1.43a4.22,4.22,0,0,1-1.46.21,2.27,2.27,0,0,1-1.74-.68,3.31,3.31,0,0,1-.63-2.28V17.23h-1.24V15.82h1.24V14.27l1.85-.55v2.1h2.07Z"/><path class="cls-1" d="M206.38,24.28H204.5V19.47c0-1.51-.57-2.27-1.71-2.27A1.79,1.79,0,0,0,201,18.52a2.2,2.2,0,0,0-.09.68v5.08H199V11.94h1.88V17h0a2.85,2.85,0,0,1,2.55-1.39,2.62,2.62,0,0,1,1.93.76,3.86,3.86,0,0,1,1,2.84Z"/><path class="cls-1" d="M216.65,19.65a4.26,4.26,0,0,1-.07.86h-5.64a2.42,2.42,0,0,0,.82,1.91,2.75,2.75,0,0,0,1.84.59,6.22,6.22,0,0,0,2.29-.4l.29,1.31a7.06,7.06,0,0,1-2.84.52,4.08,4.08,0,0,1-3.09-1.16,4.24,4.24,0,0,1-1.12-3.1,4.89,4.89,0,0,1,1-3.19,3.6,3.6,0,0,1,3-1.36A3.14,3.14,0,0,1,215.9,17,4.56,4.56,0,0,1,216.65,19.65Zm-1.79-.48a2.55,2.55,0,0,0-.37-1.45,1.65,1.65,0,0,0-1.5-.78,1.77,1.77,0,0,0-1.49.76,2.8,2.8,0,0,0-.56,1.47Z"/></g></g></svg>