<svg width="19" height="20" viewBox="0 0 19 20" fill="none" xmlns="http://www.w3.org/2000/svg">
<path d="M16.2008 0.997943L1.73311 8.058C1.12359 8.35541 0.740812 8.96153 0.734071 9.63968C0.727384 10.3179 1.09811 10.9315 1.70159 11.2409L6.46775 13.6848L10.7575 8.82802C10.9549 8.60454 11.2961 8.58336 11.5196 8.78077C11.7431 8.97817 11.7643 9.31941 11.5669 9.54292L7.27715 14.3997L10.291 18.8275C10.6726 19.3881 11.3273 19.6802 11.9994 19.5898C12.6729 19.4992 13.2261 19.0435 13.4456 18.403L18.6647 3.17416C18.9023 2.4808 18.7086 1.74867 18.1593 1.26345C17.6099 0.778234 16.8594 0.676447 16.2008 0.997943Z" fill="#2E3192"/>
</svg>
