<svg width="38" height="37" viewBox="0 0 38 37" fill="none" xmlns="http://www.w3.org/2000/svg">
<circle cx="19.0002" cy="18.5" r="18.5" fill="white"/>
<g clip-path="url(#clip0_75_11218)">
<path d="M26.101 12.2728C24.8144 11.6958 23.4353 11.2694 21.9931 11.0269C21.9803 11.0244 21.967 11.026 21.9551 11.0314C21.9432 11.0368 21.9333 11.0457 21.9267 11.057C21.7501 11.3655 21.5533 11.7678 21.4154 12.0855C19.8859 11.8583 18.3309 11.8583 16.8014 12.0855C16.6478 11.7334 16.4746 11.39 16.2825 11.057C16.276 11.0456 16.2662 11.0365 16.2543 11.0308C16.2425 11.0251 16.2291 11.0232 16.2161 11.0252C14.7748 11.2677 13.3957 11.6942 12.1083 12.272C12.0972 12.2766 12.0878 12.2845 12.0814 12.2946C9.46448 16.1202 8.74718 19.8514 9.09952 23.5357C9.1005 23.5448 9.10332 23.5535 9.1078 23.5614C9.11228 23.5693 9.11834 23.5762 9.12559 23.5817C10.653 24.6875 12.3566 25.5299 14.1651 26.0736C14.1778 26.0775 14.1912 26.0775 14.2038 26.0736C14.2164 26.0697 14.2276 26.0621 14.2358 26.0519C14.6243 25.5334 14.9707 24.9857 15.2667 24.4104C15.2844 24.377 15.2676 24.3368 15.2323 24.3234C14.689 24.12 14.1627 23.8745 13.6581 23.5892C13.649 23.5841 13.6414 23.5768 13.6358 23.568C13.6303 23.5592 13.6271 23.5491 13.6264 23.5388C13.6257 23.5284 13.6277 23.5181 13.632 23.5086C13.6364 23.4992 13.643 23.491 13.6514 23.4847C13.7573 23.407 13.8633 23.3258 13.9642 23.2447C13.9733 23.2374 13.9842 23.2328 13.9958 23.2313C14.0074 23.2298 14.0191 23.2316 14.0298 23.2364C17.332 24.7114 20.9084 24.7114 24.1719 23.2364C24.1826 23.2313 24.1945 23.2293 24.2062 23.2307C24.218 23.232 24.2291 23.2366 24.2384 23.2439C24.3393 23.3258 24.4444 23.407 24.5512 23.4847C24.5596 23.4908 24.5663 23.4989 24.5708 23.5083C24.5753 23.5177 24.5774 23.528 24.5769 23.5383C24.5764 23.5487 24.5733 23.5588 24.568 23.5676C24.5626 23.5765 24.5551 23.584 24.5461 23.5892C24.0433 23.8769 23.5202 24.1202 22.9711 24.3226C22.9627 24.3256 22.955 24.3304 22.9486 24.3367C22.9422 24.3429 22.9372 24.3504 22.9339 24.3587C22.9306 24.3671 22.9292 24.376 22.9297 24.3849C22.9301 24.3938 22.9325 24.4025 22.9366 24.4104C23.2394 24.9849 23.5858 25.5318 23.9668 26.051C23.9747 26.0617 23.9857 26.0697 23.9983 26.0739C24.011 26.078 24.0246 26.0783 24.0374 26.0745C25.849 25.5323 27.5554 24.6895 29.0845 23.5817C29.092 23.5765 29.0982 23.5698 29.1029 23.562C29.1075 23.5542 29.1104 23.5456 29.1114 23.5366C29.5319 19.2769 28.4067 15.5759 26.127 12.2962C26.1215 12.2856 26.1122 12.2773 26.101 12.2728ZM15.7603 21.2922C14.7664 21.2922 13.9465 20.3983 13.9465 19.302C13.9465 18.2049 14.7504 17.3118 15.7603 17.3118C16.7778 17.3118 17.5902 18.2124 17.5742 19.302C17.5742 20.3991 16.7703 21.2922 15.7603 21.2922ZM22.4666 21.2922C21.4718 21.2922 20.6527 20.3983 20.6527 19.302C20.6527 18.2049 21.4558 17.3118 22.4666 17.3118C23.4841 17.3118 24.2964 18.2124 24.2804 19.302C24.2804 20.3991 23.4849 21.2922 22.4666 21.2922Z" fill="#2E3192"/>
</g>
<defs>
<clipPath id="clip0_75_11218">
<rect width="20.1818" height="20.069" fill="white" transform="translate(9.01636 8.51611)"/>
</clipPath>
</defs>
</svg>
