<svg xmlns="http://www.w3.org/2000/svg" xmlns:xlink="http://www.w3.org/1999/xlink" viewBox="0 0 243 72"><defs><style>.cls-1,.cls-2,.cls-9{fill:#fff;}.cls-1{stroke:#fff;stroke-miterlimit:10;stroke-width:0.13px;}.cls-3{fill:url(#linear-gradient);}.cls-4{fill:url(#linear-gradient-2);}.cls-5{fill:url(#linear-gradient-3);}.cls-6{fill:url(#linear-gradient-4);}.cls-7{opacity:0.2;}.cls-7,.cls-8,.cls-9{isolation:isolate;}.cls-8{opacity:0.12;}.cls-9{opacity:0.25;}</style><linearGradient id="linear-gradient" x1="39.24" y1="-5091.75" x2="9.03" y2="-5121.96" gradientTransform="matrix(1, 0, 0, -1, 0, -5076.08)" gradientUnits="userSpaceOnUse"><stop offset="0" stop-color="#1ba1fb"/><stop offset="0.01" stop-color="#1ba2fb"/><stop offset="0.26" stop-color="#20befb"/><stop offset="0.51" stop-color="#24d2fc"/><stop offset="0.76" stop-color="#26defc"/><stop offset="1" stop-color="#27e2fc"/></linearGradient><linearGradient id="linear-gradient-2" x1="60.9" y1="-5112.08" x2="17.35" y2="-5112.08" gradientTransform="matrix(1, 0, 0, -1, 0, -5076.08)" gradientUnits="userSpaceOnUse"><stop offset="0" stop-color="#fddd32"/><stop offset="0.41" stop-color="#fcbb2c"/><stop offset="0.78" stop-color="#fca328"/><stop offset="1" stop-color="#fc9a27"/></linearGradient><linearGradient id="linear-gradient-3" x1="44.69" y1="-5116.21" x2="3.72" y2="-5157.17" gradientTransform="matrix(1, 0, 0, -1, 0, -5076.08)" gradientUnits="userSpaceOnUse"><stop offset="0" stop-color="#fb3d4a"/><stop offset="1" stop-color="#c01963"/></linearGradient><linearGradient id="linear-gradient-4" x1="13.13" y1="-5076.39" x2="31.43" y2="-5094.68" gradientTransform="matrix(1, 0, 0, -1, 0, -5076.08)" gradientUnits="userSpaceOnUse"><stop offset="0" stop-color="#389e72"/><stop offset="0.07" stop-color="#34a572"/><stop offset="0.48" stop-color="#29cc77"/><stop offset="0.8" stop-color="#27e47a"/><stop offset="1" stop-color="#27ed7b"/></linearGradient></defs><title>googleplay</title><g id="Capa_2" data-name="Capa 2"><g id="Contenido"><rect width="243" height="72" rx="9"/><path class="cls-1" d="M85.35,18.44A4.83,4.83,0,0,1,84,22a5.21,5.21,0,0,1-4,1.6A5.57,5.57,0,0,1,74.43,18,5.57,5.57,0,0,1,80,12.36a5.58,5.58,0,0,1,2.22.45A4.48,4.48,0,0,1,84,14l-1,1a3.62,3.62,0,0,0-3-1.28A4.17,4.17,0,0,0,75.85,18a4.25,4.25,0,0,0,7.21,3.11A3.47,3.47,0,0,0,84,18.92H80v-1.3h5.24A4.78,4.78,0,0,1,85.35,18.44Z"/><path class="cls-1" d="M93.65,13.93H88.73v3.42h4.44v1.3H88.73v3.42h4.92V23.4H87.34V12.6h6.31Z"/><path class="cls-1" d="M99.5,23.4H98.11V13.93h-3V12.6h7.42v1.33h-3Z"/><path class="cls-1" d="M107.89,23.4V12.6h1.38V23.4Z"/><path class="cls-1" d="M115.43,23.4H114V13.93h-3V12.6h7.42v1.33h-3Z"/><path class="cls-1" d="M132.5,22a5.6,5.6,0,0,1-7.92,0A5.51,5.51,0,0,1,123,18a5.51,5.51,0,0,1,1.59-4,5.59,5.59,0,0,1,7.91,0,5.56,5.56,0,0,1,1.6,4A5.51,5.51,0,0,1,132.5,22Zm-6.9-.9a4.16,4.16,0,0,0,5.87,0,4.22,4.22,0,0,0,1.2-3.1,4.22,4.22,0,0,0-1.2-3.1,4.16,4.16,0,0,0-5.87,0,4.22,4.22,0,0,0-1.2,3.1A4.22,4.22,0,0,0,125.6,21.1Z"/><path class="cls-1" d="M136,23.4V12.6h1.69L143,21H143L143,18.92V12.6h1.39V23.4h-1.45l-5.49-8.81h-.06l.06,2.08V23.4Z"/><path class="cls-2" d="M122.64,39.15a7.66,7.66,0,1,0,7.69,7.66A7.55,7.55,0,0,0,122.64,39.15Zm0,12.3A4.65,4.65,0,1,1,127,46.81,4.43,4.43,0,0,1,122.64,51.45Zm-16.76-12.3a7.66,7.66,0,1,0,7.68,7.66A7.55,7.55,0,0,0,105.88,39.15Zm0,12.3a4.65,4.65,0,1,1,4.32-4.64A4.43,4.43,0,0,1,105.88,51.45Zm-19.94-10v3.25h7.77a6.76,6.76,0,0,1-1.77,4.09,8,8,0,0,1-6,2.38,8.65,8.65,0,0,1,0-17.29,8.33,8.33,0,0,1,5.86,2.32L94.09,34a11.37,11.37,0,0,0-8.15-3.27,11.89,11.89,0,1,0,0,23.77,10.88,10.88,0,0,0,8.29-3.33A10.72,10.72,0,0,0,97,43.53a10.33,10.33,0,0,0-.17-2ZM167.49,44c-.64-1.71-2.58-4.87-6.55-4.87s-7.22,3.11-7.22,7.66a7.49,7.49,0,0,0,7.6,7.65,7.64,7.64,0,0,0,6.38-3.39l-2.61-1.74a4.37,4.37,0,0,1-3.77,2.12,3.9,3.9,0,0,1-3.72-2.32l10.24-4.24Zm-10.44,2.56a4.21,4.21,0,0,1,4-4.47,3,3,0,0,1,2.85,1.62ZM148.73,54h3.36V31.5h-3.36Zm-5.51-13.14h-.12a5.29,5.29,0,0,0-4-1.71,7.66,7.66,0,0,0,0,15.31,5.2,5.2,0,0,0,4-1.74h.12v1.11c0,2.93-1.57,4.49-4.09,4.49a4.23,4.23,0,0,1-3.85-2.72l-2.93,1.21a7.29,7.29,0,0,0,6.78,4.53c4,0,7.28-2.32,7.28-8V39.62h-3.19Zm-3.86,10.59a4.39,4.39,0,0,1-4.26-4.61,4.42,4.42,0,0,1,4.26-4.67c2.29,0,4.09,2,4.09,4.67S141.65,51.45,139.36,51.45Zm43.89-20H175.2V54h3.36V45.47h4.69a7,7,0,1,0,0-14Zm.09,10.84h-4.78V34.63h4.78a3.86,3.86,0,1,1,0,7.71Zm20.75-3.23a6.3,6.3,0,0,0-6,3.45l3,1.24a3.2,3.2,0,0,1,3.07-1.65c1.74,0,3.5,1,3.53,2.9v.23a7.4,7.4,0,0,0-3.5-.87c-3.21,0-6.48,1.77-6.48,5.07,0,3,2.63,5,5.58,5a4.76,4.76,0,0,0,4.29-2.2h.11V54h3.25V45.34C210.93,41.34,207.94,39.11,204.09,39.11Zm-.4,12.33c-1.1,0-2.64-.55-2.64-1.91,0-1.73,1.91-2.4,3.56-2.4a6,6,0,0,1,3.07.75A4.06,4.06,0,0,1,203.69,51.44ZM222.74,39.6l-3.85,9.76h-.12l-4-9.76h-3.62l6,13.64-3.42,7.58h3.51l9.23-21.22ZM192.48,54h3.36V31.5h-3.36Z"/><path class="cls-3" d="M18.78,13.57A3.61,3.61,0,0,0,18,16.1V55.91a3.6,3.6,0,0,0,.83,2.52l.14.13,22.3-22.3v-.52l-22.3-22.3Z"/><path class="cls-4" d="M48.65,43.7l-7.43-7.44v-.52l7.43-7.44.17.1,8.81,5c2.51,1.43,2.51,3.77,0,5.2l-8.81,5Z"/><path class="cls-5" d="M48.82,43.6,41.22,36,18.78,58.43c.83.88,2.2,1,3.74.12L48.82,43.6"/><path class="cls-6" d="M48.82,28.4,22.52,13.46c-1.54-.88-2.91-.77-3.74.11L41.22,36Z"/><path class="cls-7" d="M48.65,43.44,22.52,58.28c-1.46.83-2.76.78-3.6,0h0l-.14.14h0l.14.13h0c.84.76,2.14.82,3.6,0L48.82,43.6Z"/><path class="cls-8" d="M18.78,58.17A3.61,3.61,0,0,1,18,55.64v.27a3.64,3.64,0,0,0,.83,2.53l.14-.14Z"/><path class="cls-8" d="M57.63,38.34l-9,5.1.17.16,8.81-5A3.16,3.16,0,0,0,59.51,36h0A3.34,3.34,0,0,1,57.63,38.34Z"/><path class="cls-9" d="M22.52,13.72l35.11,20A3.31,3.31,0,0,1,59.51,36h0a3.18,3.18,0,0,0-1.88-2.6L22.52,13.46C20,12,18,13.22,18,16.1v.26C18,13.48,20,12.29,22.52,13.72Z"/></g></g></svg>