<svg width="38" height="37" viewBox="0 0 38 37" fill="none" xmlns="http://www.w3.org/2000/svg">
<circle cx="18.9585" cy="18.5" r="18.5" fill="white"/>
<path d="M28.7494 12.5609C28.0473 12.872 27.293 13.0823 26.5 13.1773C27.3182 12.6877 27.9303 11.9172 28.2222 11.0094C27.4535 11.466 26.6121 11.7874 25.7348 11.9597C25.1448 11.3297 24.3633 10.9122 23.5117 10.7719C22.6601 10.6315 21.786 10.7763 21.0251 11.1837C20.2641 11.5911 19.659 12.2383 19.3036 13.0248C18.9483 13.8114 18.8625 14.6932 19.0596 15.5335C17.502 15.4553 15.9782 15.0505 14.5872 14.3452C13.1962 13.64 11.969 12.6502 10.9852 11.44C10.6489 12.0202 10.4555 12.6929 10.4555 13.4094C10.4551 14.0544 10.6139 14.6895 10.9179 15.2583C11.2218 15.8272 11.6615 16.3122 12.1978 16.6704C11.5758 16.6506 10.9675 16.4826 10.4235 16.1802V16.2306C10.4234 17.1352 10.7364 18.012 11.3091 18.7122C11.8819 19.4123 12.6793 19.8927 13.566 20.0719C12.9889 20.2281 12.384 20.2511 11.7967 20.1392C12.0469 20.9175 12.5342 21.5982 13.1904 22.0858C13.8466 22.5735 14.6389 22.8437 15.4564 22.8587C14.0687 23.948 12.355 24.5389 10.5909 24.5363C10.2784 24.5364 9.96612 24.5181 9.65576 24.4816C11.4465 25.633 13.531 26.244 15.6599 26.2417C22.8664 26.2417 26.8061 20.2729 26.8061 15.0963C26.8061 14.9281 26.8019 14.7582 26.7943 14.59C27.5606 14.0358 28.2221 13.3496 28.7478 12.5634L28.7494 12.5609Z" fill="#2E3192"/>
</svg>
