<svg width="40" height="40" viewBox="0 0 40 40" fill="none" xmlns="http://www.w3.org/2000/svg">
<circle cx="20.1389" cy="19.6814" r="19.6648" fill="#2E3192"/>
<g clip-path="url(#clip0_92_1984)">
<path d="M30.5466 13.368C29.8002 13.6987 28.9984 13.9222 28.1555 14.0232C29.0252 13.5028 29.6759 12.6837 29.9861 11.7188C29.169 12.2042 28.2747 12.5458 27.3421 12.7289C26.715 12.0593 25.8843 11.6154 24.9791 11.4663C24.0738 11.3172 23.1447 11.4711 22.3358 11.9041C21.527 12.3371 20.8838 13.0251 20.5061 13.8611C20.1283 14.6972 20.0371 15.6346 20.2467 16.5278C18.591 16.4446 16.9713 16.0143 15.4927 15.2647C14.0141 14.515 12.7096 13.4629 11.6639 12.1765C11.3064 12.7932 11.1008 13.5083 11.1008 14.2699C11.1004 14.9555 11.2692 15.6306 11.5923 16.2352C11.9154 16.8399 12.3827 17.3555 12.9529 17.7363C12.2916 17.7152 11.645 17.5366 11.0668 17.2151V17.2688C11.0668 18.2303 11.3994 19.1623 12.0082 19.9065C12.6171 20.6508 13.4646 21.1614 14.4072 21.3519C13.7938 21.5179 13.1507 21.5424 12.5265 21.4234C12.7924 22.2508 13.3104 22.9743 14.0079 23.4926C14.7055 24.011 15.5476 24.2982 16.4165 24.3141C14.9415 25.472 13.1199 26.1001 11.2447 26.0974C10.9125 26.0975 10.5806 26.0781 10.2507 26.0393C12.1542 27.2631 14.3699 27.9126 16.6328 27.9101C24.2932 27.9101 28.4809 21.5655 28.4809 16.063C28.4809 15.8842 28.4764 15.7036 28.4684 15.5249C29.2829 14.9358 29.9861 14.2063 30.5448 13.3707L30.5466 13.368V13.368Z" fill="white"/>
</g>
<defs>
<clipPath id="clip0_92_1984">
<rect width="21.4525" height="21.4525" fill="white" transform="translate(9.41309 8.95459)"/>
</clipPath>
</defs>
</svg>
